<svg xmlns="http://www.w3.org/2000/svg" data-name="图层 1" viewBox="0 0 40 40" width="40" height="40" id="top1" y="3760">
<title>top1</title>
<path d="M13 14q0-5.85 4.89-11a3 3 0 0 1 4.24-.11l.06.06A15.27 15.27 0 0 1 27 14v5l2.49 2.49a4 4 0 0 1 1.09 3.61l-1 5.12a2 2 0 0 1-3 1.32L24 30l-2.92 1.88a2 2 0 0 1-2.17 0L16 30l-2.57 1.54a2 2 0 0 1-3-1.32l-1-5.12a4 4 0 0 1 1.09-3.61L13 19zm1 0v5.41l-2.78 2.78a3 3 0 0 0-.82 2.71l1 5.12a1 1 0 0 0 1.5.66l3.1-1.86L19.46 31a1 1 0 0 0 1.08 0L24 28.82l3.1 1.86a1 1 0 0 0 1.5-.66l1-5.12a3 3 0 0 0-.82-2.71L26 19.41V14a14.28 14.28 0 0 0-4.51-10.35 2 2 0 0 0-2.87 0C15.52 6.94 14 10.37 14 14zm6 4a3 3 0 1 1 3-3 3 3 0 0 1-3 3zm0-1a2 2 0 1 0-2-2 2 2 0 0 0 2 2zm-.5 16a.5.5 0 0 1 .5.5v5a.5.5 0 0 1-1 0v-5a.5.5 0 0 1 .5-.5zm-3-1a.5.5 0 0 1 .5.5v3a.5.5 0 0 1-1 0v-3a.5.5 0 0 1 .5-.5zm7 1a.5.5 0 0 1 .5.5v2a.5.5 0 0 1-1 0v-2a.5.5 0 0 1 .5-.5z" fill="#666"/>
</svg>