<svg id="图层_1" data-name="图层 1" xmlns="http://www.w3.org/2000/svg" viewBox="0 0 38.89 34.47"><defs><style>.cls-1{fill:#fb7299;}</style></defs><title>like active</title><g id="页面1"><path id="形状" class="cls-1" d="M12.06,35.27V10.43h-.15l6.7-8.37A3.83,3.83,0,0,1,25.25,5L25,10.55H35.42a4.15,4.15,0,0,1,3.33,1.67,4.38,4.38,0,0,1,.56,3.47L34.86,30.41a6.37,6.37,0,0,1-6,4.86Zm-2.5,0h-4a4.52,4.52,0,0,1-4.31-2.36,5.61,5.61,0,0,1-.69-2.5V15.55a4.93,4.93,0,0,1,2.5-4.31,8.38,8.38,0,0,1,2.5-.69h4Z" transform="translate(-0.56 -0.82)"/></g></svg>